<svg width="20" height="20" viewBox="0 0 20 20" fill="none" xmlns="http://www.w3.org/2000/svg">
<path d="M5.83317 3.33366C5.83317 2.89163 6.00877 2.46771 6.32133 2.15515C6.63389 1.84259 7.05781 1.66699 7.49984 1.66699H12.4998C12.9419 1.66699 13.3658 1.84259 13.6783 2.15515C13.9909 2.46771 14.1665 2.89163 14.1665 3.33366V5.00033H17.4998C17.7208 5.00033 17.9328 5.08812 18.0891 5.2444C18.2454 5.40068 18.3332 5.61264 18.3332 5.83366C18.3332 6.05467 18.2454 6.26663 18.0891 6.42291C17.9328 6.57919 17.7208 6.66699 17.4998 6.66699H16.609L15.8865 16.7853C15.8566 17.2058 15.6684 17.5993 15.3599 17.8866C15.0514 18.1739 14.6456 18.3337 14.224 18.3337H5.77484C5.35329 18.3337 4.94739 18.1739 4.63891 17.8866C4.33042 17.5993 4.14227 17.2058 4.11234 16.7853L3.3915 6.66699H2.49984C2.27882 6.66699 2.06686 6.57919 1.91058 6.42291C1.7543 6.26663 1.6665 6.05467 1.6665 5.83366C1.6665 5.61264 1.7543 5.40068 1.91058 5.2444C2.06686 5.08812 2.27882 5.00033 2.49984 5.00033H5.83317V3.33366ZM7.49984 5.00033H12.4998V3.33366H7.49984V5.00033ZM5.0615 6.66699L5.77567 16.667H14.2248L14.939 6.66699H5.0615ZM8.33317 8.33366C8.55418 8.33366 8.76615 8.42146 8.92243 8.57774C9.07871 8.73402 9.1665 8.94598 9.1665 9.16699V14.167C9.1665 14.388 9.07871 14.6 8.92243 14.7562C8.76615 14.9125 8.55418 15.0003 8.33317 15.0003C8.11216 15.0003 7.9002 14.9125 7.74392 14.7562C7.58763 14.6 7.49984 14.388 7.49984 14.167V9.16699C7.49984 8.94598 7.58763 8.73402 7.74392 8.57774C7.9002 8.42146 8.11216 8.33366 8.33317 8.33366ZM11.6665 8.33366C11.8875 8.33366 12.0995 8.42146 12.2558 8.57774C12.412 8.73402 12.4998 8.94598 12.4998 9.16699V14.167C12.4998 14.388 12.412 14.6 12.2558 14.7562C12.0995 14.9125 11.8875 15.0003 11.6665 15.0003C11.4455 15.0003 11.2335 14.9125 11.0772 14.7562C10.921 14.6 10.8332 14.388 10.8332 14.167V9.16699C10.8332 8.94598 10.921 8.73402 11.0772 8.57774C11.2335 8.42146 11.4455 8.33366 11.6665 8.33366Z" fill="black"/>
</svg>
