<svg width="24" height="24" viewBox="0 0 24 24" fill="none" xmlns="http://www.w3.org/2000/svg">
<path d="M21.2508 9.37612C21.2508 9.21036 21.1849 9.05138 21.0677 8.93417C20.9505 8.81696 20.7915 8.75112 20.6258 8.75112C20.46 8.75112 20.3011 8.81696 20.1838 8.93417C20.0666 9.05138 20.0008 9.21036 20.0008 9.37612H21.2508ZM3.75079 9.37612C3.75079 9.21036 3.68494 9.05138 3.56773 8.93417C3.45052 8.81696 3.29155 8.75112 3.12579 8.75112C2.96003 8.75112 2.80106 8.81696 2.68385 8.93417C2.56664 9.05138 2.50079 9.21036 2.50079 9.37612H3.75079ZM22.6833 12.3186C22.8006 12.436 22.9598 12.5019 23.1258 12.5019C23.2918 12.5019 23.4509 12.436 23.5683 12.3186C23.6856 12.2013 23.7516 12.0421 23.7516 11.8761C23.7516 11.7101 23.6856 11.551 23.5683 11.4336L22.6833 12.3186ZM11.8758 0.626117L12.3183 0.183617C12.2602 0.125413 12.1913 0.0792347 12.1153 0.0477266C12.0394 0.0162186 11.958 0 11.8758 0C11.7936 0 11.7122 0.0162186 11.6362 0.0477266C11.5603 0.0792347 11.4913 0.125413 11.4333 0.183617L11.8758 0.626117ZM0.183289 11.4336C0.0659311 11.551 0 11.7101 0 11.8761C0 12.0421 0.0659311 12.2013 0.183289 12.3186C0.300648 12.436 0.45982 12.5019 0.625789 12.5019C0.791759 12.5019 0.950931 12.436 1.06829 12.3186L0.183289 11.4336ZM5.62579 23.7511H18.1258V22.5011H5.62579V23.7511ZM21.2508 20.6261V9.37612H20.0008V20.6261H21.2508ZM3.75079 20.6261V9.37612H2.50079V20.6261H3.75079ZM23.5683 11.4336L12.3183 0.183617L11.4333 1.06862L22.6833 12.3186L23.5683 11.4336ZM11.4333 0.183617L0.183289 11.4336L1.06829 12.3186L12.3183 1.06862L11.4333 0.183617ZM18.1258 23.7511C18.9546 23.7511 19.7494 23.4219 20.3355 22.8358C20.9215 22.2498 21.2508 21.4549 21.2508 20.6261H20.0008C20.0008 21.1234 19.8032 21.6003 19.4516 21.9519C19.1 22.3036 18.6231 22.5011 18.1258 22.5011V23.7511ZM5.62579 22.5011C5.12851 22.5011 4.65159 22.3036 4.29996 21.9519C3.94833 21.6003 3.75079 21.1234 3.75079 20.6261H2.50079C2.50079 21.4549 2.83003 22.2498 3.41608 22.8358C4.00213 23.4219 4.79699 23.7511 5.62579 23.7511V22.5011Z" fill="black"/>
</svg>
