<svg width="22" height="23" viewBox="0 0 22 23" fill="none" xmlns="http://www.w3.org/2000/svg">
<path d="M6.46853 22.6862C5.95427 22.6862 5.52084 22.5099 5.16824 22.1573C4.81565 21.8047 4.63976 21.3717 4.64057 20.8582C4.64139 20.3448 4.81728 19.9113 5.16824 19.5579C5.52084 19.2061 5.95427 19.0303 6.46853 19.0303C6.9828 19.0303 7.41582 19.2061 7.7676 19.5579C8.11938 19.9097 8.29568 20.3431 8.29649 20.8582C8.2973 21.3733 8.121 21.8063 7.7676 22.1573C7.41419 22.5082 6.98117 22.6845 6.46853 22.6862ZM17.9042 22.6862C17.3908 22.6862 16.9578 22.5099 16.6052 22.1573C16.2526 21.8047 16.0763 21.3717 16.0763 20.8582C16.0763 20.3448 16.2526 19.9113 16.6052 19.5579C16.9578 19.2061 17.3908 19.0303 17.9042 19.0303C18.4177 19.0303 18.8511 19.2061 19.2045 19.5579C19.5563 19.9105 19.7322 20.3439 19.7322 20.8582C19.7322 21.3717 19.5563 21.8047 19.2045 22.1573C18.8519 22.5099 18.4185 22.6862 17.9042 22.6862ZM4.72953 3.65591L7.98208 10.4998H16.0677C16.2083 10.4998 16.333 10.4644 16.4419 10.3938C16.5515 10.3231 16.6454 10.2256 16.7234 10.1013L19.9113 4.31276C20.0048 4.14053 20.0125 3.9882 19.9345 3.85577C19.8557 3.72253 19.7228 3.65591 19.536 3.65591H4.72953ZM4.13362 2.43728H20.0003C20.5292 2.43728 20.9273 2.65338 21.1946 3.08559C21.4627 3.51699 21.4769 3.96179 21.2372 4.42L17.7543 10.7667C17.578 11.0632 17.3489 11.296 17.067 11.4649C16.7851 11.6339 16.4752 11.7184 16.1372 11.7184H7.43369L5.95305 14.436C5.82793 14.6237 5.82387 14.8268 5.94086 15.0453C6.05785 15.2638 6.23374 15.3735 6.46853 15.3743H19.7322V16.593H6.46853C5.75766 16.593 5.22714 16.2932 4.87699 15.6936C4.52683 15.0941 4.5183 14.492 4.8514 13.8876L6.68423 10.6216L2.2033 1.21864H0V0H2.97591L4.13362 2.43728Z" fill="black"/>
</svg>
