<svg width="23" height="24" viewBox="0 0 23 24" fill="none" xmlns="http://www.w3.org/2000/svg">
<path d="M22.4355 11.4652C22.439 13.6426 21.7913 15.7713 20.5758 17.5779C19.5734 19.0732 18.218 20.2984 16.6294 21.1452C15.0408 21.992 13.268 22.4343 11.4677 22.4329C9.66754 22.4343 7.89474 21.992 6.30613 21.1452C4.71753 20.2984 3.36207 19.0732 2.35964 17.5779C1.40512 16.155 0.797229 14.5283 0.584703 12.8282C0.372176 11.128 0.560926 9.40174 1.13582 7.7877C1.71072 6.17365 2.65577 4.71674 3.89521 3.53376C5.13465 2.35078 6.63401 1.47464 8.27309 0.975576C9.91217 0.476509 11.6454 0.368398 13.3338 0.659908C15.0222 0.951419 16.6188 1.63444 17.9956 2.65423C19.3725 3.67401 20.4912 5.00218 21.2623 6.53228C22.0333 8.06237 22.4351 9.75182 22.4355 11.4652Z" stroke="black"/>
<path d="M13.2958 7.80929C13.2958 8.2941 13.1033 8.75904 12.7605 9.10185C12.4176 9.44466 11.9527 9.63725 11.4679 9.63725V10.8559C11.868 10.8559 12.2641 10.7771 12.6338 10.624C13.0034 10.4709 13.3393 10.2465 13.6222 9.96356C13.9051 9.68066 14.1295 9.3448 14.2826 8.97517C14.4357 8.60554 14.5145 8.20938 14.5145 7.80929H13.2958ZM11.4679 9.63725C10.9831 9.63725 10.5181 9.44466 10.1753 9.10185C9.83252 8.75904 9.63993 8.2941 9.63993 7.80929H8.4213C8.4213 8.20938 8.5001 8.60554 8.6532 8.97517C8.80631 9.3448 9.03072 9.68066 9.31362 9.96356C9.88497 10.5349 10.6599 10.8559 11.4679 10.8559V9.63725ZM9.63993 7.80929C9.63993 7.32449 9.83252 6.85954 10.1753 6.51673C10.5181 6.17392 10.9831 5.98133 11.4679 5.98133V4.7627C10.6599 4.7627 9.88497 5.08367 9.31362 5.65502C8.74228 6.22637 8.4213 7.00128 8.4213 7.80929H9.63993ZM11.4679 5.98133C11.9527 5.98133 12.4176 6.17392 12.7605 6.51673C13.1033 6.85954 13.2958 7.32449 13.2958 7.80929H14.5145C14.5145 7.00128 14.1935 6.22637 13.6222 5.65502C13.0508 5.08367 12.2759 4.7627 11.4679 4.7627V5.98133ZM3.13972 18.6016L2.55477 18.4285L2.46094 18.7466L2.67664 18.9988L3.13972 18.6016ZM19.7961 18.6016L20.2591 18.9988L20.4748 18.7466L20.3798 18.4285L19.7961 18.6016ZM7.81198 15.7304H15.1238V14.5118H7.81198V15.7304ZM7.81198 14.5118C6.63094 14.5116 5.48141 14.8927 4.53439 15.5984C3.58738 16.3041 2.89229 17.2967 2.55477 18.4285L3.72345 18.7758C3.98615 17.8956 4.52599 17.1238 5.26265 16.5751C5.99931 16.0264 6.89342 15.7301 7.81198 15.7304V14.5118ZM11.4679 21.8236C9.97295 21.8252 8.49546 21.5025 7.13737 20.8776C5.77929 20.2527 4.57294 19.3406 3.60158 18.2043L2.67664 18.9988C3.76251 20.2683 5.11079 21.2873 6.62852 21.9853C8.14625 22.6834 9.79732 23.044 11.4679 23.0423V21.8236ZM15.1238 15.7304C16.0425 15.7302 16.9367 16.0266 17.6734 16.5756C18.4101 17.1245 18.9498 17.8966 19.2123 18.777L20.3798 18.4285C20.0423 17.2967 19.3484 16.3041 18.4014 15.5984C17.4544 14.8927 16.3048 14.5116 15.1238 14.5118V15.7304ZM19.3342 18.2043C18.3628 19.3406 17.1565 20.2527 15.7984 20.8776C14.4403 21.5025 12.9628 21.8252 11.4679 21.8236V23.0423C13.1385 23.044 14.7895 22.6834 16.3073 21.9853C17.825 21.2873 19.1733 20.2683 20.2591 18.9988L19.3342 18.2043Z" fill="black"/>
</svg>
