<svg width="44" height="46" viewBox="0 0 44 46" fill="none" xmlns="http://www.w3.org/2000/svg">
<path d="M42.7384 10.1498L21.8526 0.0669785C21.6674 -0.0223262 21.4518 -0.0223262 21.2667 0.0669785L0.380848 10.1498C0.147973 10.2622 0 10.498 0 10.7566V35.2434C0 35.502 0.147973 35.7378 0.380848 35.8502L21.2666 45.933C21.3592 45.9777 21.4595 46 21.5596 46C21.6598 46 21.76 45.9777 21.8526 45.933L42.7384 35.8502C42.9713 35.7378 43.1193 35.502 43.1193 35.2434V10.7567C43.1193 10.4979 42.9712 10.2623 42.7384 10.1498ZM21.5596 1.42209L40.8955 10.7566L35.2904 13.4625C35.255 13.4355 35.2175 13.4105 35.1763 13.3906L15.9718 4.11965L21.5596 1.42209ZM14.45 4.88153L33.7578 14.2025L29.8033 16.1115L10.5035 6.79439L14.45 4.88153ZM34.2095 15.4808V22.5376L30.5158 24.3208V17.264L34.2095 15.4808ZM41.7716 34.8206L22.2335 44.2526V21.2623L26.8939 19.0124C27.229 18.8506 27.3696 18.4478 27.2077 18.1126C27.0459 17.7776 26.6432 17.6369 26.308 17.7988L21.5596 20.0912L19.6912 19.1891C19.356 19.0272 18.9533 19.1679 18.7915 19.503C18.6296 19.8381 18.7702 20.2409 19.1053 20.4028L20.8858 21.2623V44.2526L1.34766 34.8204V11.8301L16.2258 19.0127C16.3202 19.0583 16.42 19.0799 16.5182 19.0799C16.7687 19.0799 17.0093 18.9396 17.1255 18.6989C17.2873 18.3637 17.1468 17.9609 16.8117 17.7991L2.22372 10.7566L8.91753 7.52509L29.1588 17.2968C29.1618 17.3009 29.1651 17.3046 29.1681 17.3086V25.3945C29.1681 25.6264 29.2874 25.8419 29.4838 25.9652C29.5928 26.0337 29.7173 26.0683 29.8421 26.0683C29.942 26.0683 30.0421 26.0461 30.1349 26.0013L35.1763 23.5675C35.4092 23.4551 35.5572 23.2194 35.5572 22.9607V14.8303L41.7716 11.8302V34.8206Z" fill="#272343"/>
</svg>
