<svg width="111" height="113" viewBox="0 0 111 113" fill="none" xmlns="http://www.w3.org/2000/svg">
<path d="M109.698 111.375L110.19 105.859C110.514 102.288 109.527 98.7208 107.412 95.8251C105.297 92.9294 102.2 90.9031 98.6998 90.1254L78.1875 85.5627V56.0627C78.1875 54.1068 77.4105 52.2309 76.0274 50.8478C74.6443 49.4647 72.7685 48.6877 70.8125 48.6877C68.8565 48.6877 66.9807 49.4647 65.5976 50.8478C64.2145 52.2309 63.4375 54.1068 63.4375 56.0627V104L55.0792 97.7167C53.6287 96.6274 51.8338 96.0981 50.0243 96.2261C48.2148 96.3541 46.5123 97.1308 45.2297 98.4135C43.947 99.6962 43.1703 101.399 43.0423 103.208C42.9143 105.018 43.4436 106.813 44.5329 108.263L46.8634 111.375M48.6875 67.1252H8.125C6.16903 67.1252 4.29317 66.3482 2.91009 64.9652C1.52701 63.5821 0.75 61.7062 0.75 59.7502V8.12524C0.75 6.16927 1.52701 4.29341 2.91009 2.91033C4.29317 1.52725 6.16903 0.750244 8.125 0.750244H19.1875M78.1875 0.750244H89.25C91.206 0.750244 93.0818 1.52725 94.4649 2.91033C95.848 4.29341 96.625 6.16927 96.625 8.12524V59.7502C96.625 61.7062 95.848 63.5821 94.4649 64.9652C93.0818 66.3482 91.206 67.1252 89.25 67.1252M45 67.1252V81.8752M33.9375 81.8752H48.6875" stroke="black" stroke-width="1.5" stroke-linecap="round" stroke-linejoin="round"/>
<path d="M72.1793 34.0754L74.023 29.1587C74.4401 28.0449 74.5816 26.8467 74.4355 25.6663C74.2893 24.4859 73.8598 23.3584 73.1837 22.3799C72.5075 21.4014 71.6048 20.601 70.5523 20.0468C69.4999 19.4927 68.3291 19.2013 67.1397 19.1976H29.4043C28.214 19.198 27.0415 19.4864 25.987 20.0384C24.9324 20.5903 24.0271 21.3893 23.3484 22.367C22.6696 23.3448 22.2376 24.4723 22.0893 25.6533C21.9409 26.8343 22.0806 28.0336 22.4964 29.1489L28.9274 46.2933C29.19 46.9947 29.66 47.5995 30.2748 48.0273C30.8896 48.455 31.6201 48.6854 32.369 48.6877H48.6776M29.8222 19.1877L37.1972 0.750244M66.6972 19.1877L59.3222 0.750244" stroke="black" stroke-width="1.5" stroke-linecap="round" stroke-linejoin="round"/>
</svg>
