<svg width="95" height="101" viewBox="0 0 95 101" fill="none" xmlns="http://www.w3.org/2000/svg">
<path d="M35.3882 2.26682C37.0126 0.807364 39.1192 0 41.3029 0C43.4867 0 45.5933 0.807364 47.2177 2.26682L79.6677 31.4246C80.5903 32.2543 81.3282 33.2688 81.8333 34.4021C82.3385 35.5354 82.5997 36.7623 82.6 38.0031V47.4431C80.6479 47.1334 78.662 47.0976 76.7 47.3369V38.0031C76.6991 37.59 76.6115 37.1817 76.4427 36.8047C76.274 36.4276 76.028 36.0902 75.7206 35.8142L43.2706 6.65642C42.7293 6.17048 42.0275 5.9017 41.3 5.9017C40.5725 5.9017 39.8707 6.17048 39.3294 6.65642L6.8794 35.8142C6.57199 36.0902 6.32597 36.4276 6.15725 36.8047C5.98854 37.1817 5.90089 37.59 5.9 38.0031V79.6276C5.9 80.41 6.2108 81.1604 6.76404 81.7136C7.31727 82.2668 8.06761 82.5776 8.85 82.5776H40.8988C41.1073 82.8058 41.3236 83.0319 41.5478 83.2561L46.7221 88.4776H8.85C6.50283 88.4776 4.2518 87.5452 2.59211 85.8855C0.932408 84.2258 0 81.9748 0 79.6276V38.0031C0 35.4956 1.062 33.1061 2.9382 31.4246L35.3882 2.26682ZM89.9691 57.5439C88.5712 56.1272 86.9057 55.0023 85.0695 54.2344C83.2332 53.4666 81.2627 53.0713 79.2724 53.0713C77.2821 53.0713 75.3116 53.4666 73.4753 54.2344C71.6391 55.0023 69.9736 56.1272 68.5757 57.5439L67.85 58.2696L67.1243 57.5439C65.6124 56.0131 63.7896 54.8243 61.7791 54.0579C59.7686 53.2914 57.6171 52.9652 55.4698 53.101C53.3224 53.2369 51.2292 53.8318 49.3314 54.8456C47.4335 55.8593 45.7752 57.2684 44.4683 58.9776C42.2133 61.918 41.0988 65.5753 41.3309 69.2736C41.563 72.9719 43.1259 76.4612 45.7309 79.0966L65.9679 99.4929C66.2145 99.74 66.5074 99.936 66.8299 100.07C67.1523 100.203 67.498 100.272 67.8471 100.272C68.1961 100.272 68.5418 100.203 68.8642 100.07C69.1867 99.936 69.4796 99.74 69.7262 99.4929L89.9691 79.0966C92.8029 76.2258 94.3919 72.3542 94.3919 68.3203C94.3919 64.2864 92.8029 60.4148 89.9691 57.5439Z" fill="black"/>
</svg>
