<svg width="91" height="91" viewBox="0 0 91 91" fill="none" xmlns="http://www.w3.org/2000/svg">
<path d="M20.6667 30.5C15.4507 30.5 10.4484 32.572 6.76023 36.2602C3.07202 39.9484 1 44.9507 1 50.1667V79.6667C1 82.2746 2.03601 84.7758 3.88012 86.6199C5.72422 88.464 8.22537 89.5 10.8333 89.5H79.6667C82.2746 89.5 84.7758 88.464 86.6199 86.6199C88.464 84.7758 89.5 82.2746 89.5 79.6667V50.1667C89.5 44.9507 87.428 39.9484 83.7398 36.2602C80.0515 32.572 75.0493 30.5 69.8333 30.5M20.6667 30.5H69.8333M20.6667 30.5V15.75M69.8333 30.5V15.75M45.25 15.75V30.5M45.25 1H45.2992M20.6667 1H20.7158M69.8333 1H69.8825" stroke="black" stroke-width="2" stroke-linecap="round" stroke-linejoin="round"/>
<path d="M1 50.1667C1 55.0834 3.95 64.9167 15.75 64.9167C27.55 64.9167 30.5 55.0834 30.5 50.1667C30.5 55.0834 33.45 64.9167 45.25 64.9167C57.05 64.9167 60 55.0834 60 50.1667C60 55.0834 62.95 64.9167 74.75 64.9167C86.55 64.9167 89.5 55.0834 89.5 50.1667" stroke="black" stroke-width="2" stroke-linecap="round" stroke-linejoin="round"/>
</svg>
