<svg width="50" height="50" viewBox="0 0 50 50" fill="none" xmlns="http://www.w3.org/2000/svg">
<g clip-path="url(#clip0_291_535)">
<path d="M47.5936 14.285C47.4201 13.9196 46.9829 13.7641 46.6178 13.9378C46.2524 14.1113 46.0969 14.5482 46.2705 14.9136C47.7732 18.0768 48.5351 21.4704 48.5351 25C48.5351 31.2865 46.0871 37.1967 41.6418 41.6419C37.1967 46.0871 31.2865 48.5351 24.9999 48.5351C21.2717 48.5351 17.7063 47.689 14.403 46.0204C11.6505 44.63 9.1639 42.6779 7.14476 40.3322L10.0345 41.2955C10.4182 41.4234 10.833 41.216 10.961 40.8322C11.0889 40.4484 10.8815 40.0337 10.4977 39.9057L5.29749 38.1723C5.05667 38.0922 4.79143 38.1422 4.59661 38.3049C4.40179 38.4676 4.30501 38.7195 4.34085 38.9708L5.20755 45.0377C5.25979 45.403 5.57308 45.6666 5.93177 45.6666C5.96624 45.6666 6.0011 45.6641 6.03626 45.6592C6.43675 45.6019 6.71497 45.2309 6.65774 44.8305L6.17415 41.4455C8.29319 43.8654 10.8819 45.8828 13.7426 47.3279C17.2526 49.101 21.0401 50 24.9999 50C31.6777 50 37.9558 47.3995 42.6777 42.6777C47.3995 37.9557 50 31.6777 50 25C50 21.2512 49.1904 17.6463 47.5936 14.285Z" fill="#272343"/>
<path d="M45.6592 11.0293L44.7925 4.9624C44.7353 4.56191 44.3634 4.28389 43.9639 4.34092C43.5634 4.39814 43.2852 4.76914 43.3424 5.16953L43.8255 8.55117C39.0691 3.10156 32.2791 0 25 0C18.3223 0 12.0442 2.60049 7.32227 7.32227C2.60049 12.0442 0 18.3223 0 25C0 28.7488 0.809668 32.3539 2.40635 35.7149C2.53174 35.9789 2.79443 36.1333 3.06846 36.1333C3.17373 36.1333 3.28076 36.1105 3.38223 36.0622C3.74756 35.8887 3.90303 35.4518 3.72949 35.0863C2.22676 31.9233 1.46484 28.5298 1.46484 25C1.46484 18.7135 3.91289 12.8033 8.35811 8.35811C12.8033 3.91289 18.7135 1.46484 25 1.46484C31.9195 1.46484 38.3694 4.44277 42.8531 9.66709L39.9655 8.70459C39.5815 8.57646 39.1669 8.78408 39.0391 9.16787C38.9112 9.55166 39.1185 9.96641 39.5022 10.0943L44.7024 11.8277C44.7782 11.8529 44.8563 11.8653 44.934 11.8653C45.1031 11.8653 45.2697 11.8067 45.4034 11.6952C45.5982 11.5325 45.695 11.2806 45.6592 11.0293Z" fill="#272343"/>
<path d="M22.9646 32.8789H15.5971C15.8913 30.3154 17.7129 28.5955 19.6318 26.7836C21.6305 24.8965 23.6971 22.9451 23.6971 20.0148C23.6971 17.6118 21.5424 15.6567 18.8939 15.6567C16.2455 15.6567 14.0908 17.6118 14.0908 20.0148C14.0908 20.4193 14.4187 20.7473 14.8232 20.7473C15.2277 20.7473 15.5557 20.4193 15.5557 20.0148C15.5557 18.4195 17.0531 17.1216 18.8939 17.1216C20.7348 17.1216 22.2322 18.4195 22.2322 20.0148C22.2322 22.3137 20.4806 23.9676 18.6262 25.7186C16.5003 27.7258 14.0908 30.0009 14.0908 33.6113C14.0908 34.0158 14.4187 34.3438 14.8232 34.3438H22.9646C23.3691 34.3438 23.6971 34.0158 23.6971 33.6113C23.6971 33.2068 23.3691 32.8789 22.9646 32.8789Z" fill="#272343"/>
<path d="M35.1765 28.1818H34.3433V16.3892C34.3433 15.9847 34.0155 15.6567 33.6109 15.6567C33.2063 15.6567 32.8785 15.9847 32.8785 16.3892V28.1819H26.6652L28.8509 16.5242C28.9255 16.1267 28.6636 15.7438 28.2661 15.6693C27.8689 15.5952 27.4859 15.8566 27.4113 16.2542L25.0628 28.7794C25.0227 28.9936 25.0799 29.2145 25.2191 29.3821C25.3583 29.5498 25.5648 29.6468 25.7827 29.6468H32.8785V33.6113C32.8785 34.0157 33.2063 34.3437 33.6109 34.3437C34.0155 34.3437 34.3433 34.0157 34.3433 33.6112V29.6467H35.1765C35.5811 29.6467 35.9089 29.3187 35.9089 28.9143C35.9089 28.5098 35.5811 28.1818 35.1765 28.1818Z" fill="#272343"/>
<path d="M25 3.91406C24.5955 3.91406 24.2676 4.24199 24.2676 4.64648V7.77773C24.2676 8.18223 24.5955 8.51016 25 8.51016C25.4046 8.51016 25.7324 8.18223 25.7324 7.77773V4.64648C25.7324 4.24199 25.4046 3.91406 25 3.91406Z" fill="#272343"/>
<path d="M25 41.4897C24.5955 41.4897 24.2676 41.8177 24.2676 42.2222V45.3534C24.2676 45.7579 24.5955 46.0858 25 46.0858C25.4046 46.0858 25.7324 45.7579 25.7324 45.3534V42.2222C25.7324 41.8177 25.4046 41.4897 25 41.4897Z" fill="#272343"/>
<path d="M45.3534 24.2676H42.2222C41.8176 24.2676 41.4897 24.5955 41.4897 25C41.4897 25.4045 41.8176 25.7324 42.2222 25.7324H45.3534C45.758 25.7324 46.0858 25.4045 46.0858 25C46.0858 24.5955 45.758 24.2676 45.3534 24.2676Z" fill="#272343"/>
<path d="M7.77773 24.2676H4.64648C4.24199 24.2676 3.91406 24.5955 3.91406 25C3.91406 25.4045 4.24199 25.7324 4.64648 25.7324H7.77773C8.18223 25.7324 8.51016 25.4045 8.51016 25C8.51016 24.5955 8.18223 24.2676 7.77773 24.2676Z" fill="#272343"/>
</g>
<defs>
<clipPath id="clip0_291_535">
<rect width="50" height="50" fill="white"/>
</clipPath>
</defs>
</svg>
