<svg width="19" height="17" viewBox="0 0 19 17" fill="none" xmlns="http://www.w3.org/2000/svg">
<path d="M0 0.625C0 0.45924 0.0658481 0.300269 0.183058 0.183058C0.300269 0.0658481 0.45924 0 0.625 0H18.125C18.2908 0 18.4497 0.0658481 18.5669 0.183058C18.6842 0.300269 18.75 0.45924 18.75 0.625C18.75 0.79076 18.6842 0.949731 18.5669 1.06694C18.4497 1.18415 18.2908 1.25 18.125 1.25H0.625C0.45924 1.25 0.300269 1.18415 0.183058 1.06694C0.0658481 0.949731 0 0.79076 0 0.625ZM0 8.125C0 7.95924 0.0658481 7.80027 0.183058 7.68306C0.300269 7.56585 0.45924 7.5 0.625 7.5H18.125C18.2908 7.5 18.4497 7.56585 18.5669 7.68306C18.6842 7.80027 18.75 7.95924 18.75 8.125C18.75 8.29076 18.6842 8.44973 18.5669 8.56694C18.4497 8.68415 18.2908 8.75 18.125 8.75H0.625C0.45924 8.75 0.300269 8.68415 0.183058 8.56694C0.0658481 8.44973 0 8.29076 0 8.125ZM0.625 15C0.45924 15 0.300269 15.0658 0.183058 15.1831C0.0658481 15.3003 0 15.4592 0 15.625C0 15.7908 0.0658481 15.9497 0.183058 16.0669C0.300269 16.1842 0.45924 16.25 0.625 16.25H18.125C18.2908 16.25 18.4497 16.1842 18.5669 16.0669C18.6842 15.9497 18.75 15.7908 18.75 15.625C18.75 15.4592 18.6842 15.3003 18.5669 15.1831C18.4497 15.0658 18.2908 15 18.125 15H0.625Z" fill="black"/>
</svg>
