<svg width="25" height="22" viewBox="0 0 25 22" fill="none" xmlns="http://www.w3.org/2000/svg">
<path d="M18.0511 0C15.6016 0 13.4903 1.16418 12.3387 3.09268C11.1871 1.16418 9.07581 0 6.62634 0C4.86958 0.00211641 3.18537 0.700927 1.94315 1.94315C0.700927 3.18537 0.00211641 4.86958 0 6.62635C0 9.89268 2.05645 13.3064 6.10081 16.7704C7.96827 18.3593 9.98454 19.7646 12.1216 20.9667C12.1883 21.0027 12.2629 21.0215 12.3387 21.0215C12.4145 21.0215 12.4891 21.0027 12.5558 20.9667C14.6929 19.7646 16.7092 18.3593 18.5766 16.7704C22.621 13.3064 24.6774 9.89268 24.6774 6.62635C24.6753 4.86958 23.9765 3.18537 22.7343 1.94315C21.4921 0.700927 19.8078 0.00211641 18.0511 0ZM12.3387 20.0413C10.7392 19.1273 0.913979 13.2607 0.913979 6.62635C0.915793 5.11189 1.51821 3.65998 2.5891 2.5891C3.65998 1.51821 5.11189 0.915793 6.62634 0.913979C9.03811 0.913979 11.0649 2.20612 11.916 4.28542C11.9504 4.36923 12.009 4.44092 12.0843 4.49138C12.1595 4.54183 12.2481 4.56877 12.3387 4.56877C12.4293 4.56877 12.5179 4.54183 12.5932 4.49138C12.6684 4.44092 12.727 4.36923 12.7614 4.28542C13.6126 2.20612 15.6393 0.913979 18.0511 0.913979C19.5655 0.915793 21.0174 1.51821 22.0883 2.5891C23.1592 3.65998 23.7616 5.11189 23.7634 6.62635C23.7634 13.2527 13.9382 19.1319 12.3387 20.0413Z" fill="black"/>
</svg>
