<svg width="15" height="19" viewBox="0 0 15 19" fill="none" xmlns="http://www.w3.org/2000/svg">
<path d="M7.91324 17.25C7.76972 17.3576 7.59515 17.4158 7.41574 17.4158C7.23633 17.4158 7.06177 17.3576 6.91824 17.25C2.62657 14.0633 -1.93009 7.5075 2.67408 2.77083C3.28874 2.13351 4.02522 1.62621 4.83976 1.27906C5.65431 0.931914 6.53031 0.751998 7.41574 0.75C9.19407 0.75 10.8991 1.47667 12.1566 2.77C16.7616 7.50667 12.2057 14.0617 7.91324 17.2508" stroke="black" stroke-width="1.5" stroke-linecap="round" stroke-linejoin="round"/>
<path d="M7.41569 9.08333C7.85772 9.08333 8.28164 8.90774 8.5942 8.59518C8.90676 8.28262 9.08236 7.85869 9.08236 7.41667C9.08236 6.97464 8.90676 6.55072 8.5942 6.23816C8.28164 5.9256 7.85772 5.75 7.41569 5.75C6.97366 5.75 6.54974 5.9256 6.23718 6.23816C5.92462 6.55072 5.74902 6.97464 5.74902 7.41667C5.74902 7.85869 5.92462 8.28262 6.23718 8.59518C6.54974 8.90774 6.97366 9.08333 7.41569 9.08333Z" stroke="black" stroke-width="1.5" stroke-linecap="round" stroke-linejoin="round"/>
</svg>
