<svg width="21" height="21" viewBox="0 0 21 21" fill="none" xmlns="http://www.w3.org/2000/svg">
<path d="M14.4006 13.2323C11.806 15.9623 5.1879 9.40379 7.79223 6.66296C9.38256 4.98921 7.5864 3.07712 6.5919 1.66987C4.72531 -0.968044 0.629232 2.67412 0.752732 4.99137C1.14598 12.2995 9.05107 20.9597 16.7059 20.2035C19.1001 19.9674 21.8517 15.6427 19.1055 14.0621C17.7318 13.2713 15.8457 11.7113 14.4006 13.2312M12.6672 0.750123C14.6785 0.750123 16.6073 1.54908 18.0295 2.97123C19.4516 4.39338 20.2506 6.32223 20.2506 8.33346M12.6672 5.08346C13.5292 5.08346 14.3558 5.42587 14.9653 6.03536C15.5748 6.64485 15.9172 7.4715 15.9172 8.33346" stroke="black" stroke-width="1.5" stroke-linecap="round" stroke-linejoin="round"/>
</svg>
