<svg width="25" height="25" viewBox="0 0 25 25" fill="none" xmlns="http://www.w3.org/2000/svg">
<path fill-rule="evenodd" clip-rule="evenodd" d="M7.88468 17.0793C12.6909 21.8856 17.1447 22.4118 18.4522 22.4606C20.0322 22.5181 21.6447 21.2281 22.3422 19.9068C21.2297 18.6018 19.7809 17.5893 18.1947 16.4918C17.2584 17.4268 16.1047 19.1643 14.5684 18.5418C13.6947 18.1906 11.5372 17.1968 9.65218 15.3106C7.76718 13.4243 6.77343 11.2681 6.41968 10.3956C5.79718 8.85681 7.53968 7.70056 8.47593 6.76431C7.37843 5.15181 6.38343 3.66556 5.08093 2.60931C3.74093 3.30931 2.44343 4.90931 2.50218 6.51056C2.55093 7.81806 3.07718 12.2718 7.88468 17.0793ZM18.3597 24.9593C16.5597 24.8931 11.4584 24.1881 6.11593 18.8468C0.774678 13.5043 0.0709275 8.40431 0.0034275 6.60306C-0.0965725 3.85806 2.00593 1.19181 4.43468 0.150555C4.72715 0.0242637 5.04743 -0.0238192 5.36409 0.0110245C5.68075 0.0458682 5.98292 0.162441 6.24093 0.349305C8.25093 1.81556 9.63718 4.03681 10.8284 5.77681C11.0762 6.13862 11.1898 6.57568 11.1494 7.01236C11.109 7.44904 10.9172 7.85785 10.6072 8.16806L8.91218 9.86431C9.30593 10.7331 10.1072 12.2306 11.4197 13.5431C12.7322 14.8556 14.2297 15.6568 15.0997 16.0506L16.7934 14.3556C17.1044 14.0443 17.515 13.8523 17.9534 13.8132C18.3917 13.7741 18.8297 13.8904 19.1909 14.1418C20.9659 15.3718 23.0509 16.7381 24.5709 18.6843C24.773 18.9442 24.9015 19.2536 24.943 19.5801C24.9846 19.9066 24.9377 20.2384 24.8072 20.5406C23.7609 22.9818 21.1134 25.0606 18.3597 24.9593Z" fill="black" fill-opacity="0.9"/>
</svg>
