<svg width="15" height="15" viewBox="0 0 15 15" fill="none" xmlns="http://www.w3.org/2000/svg">
<path d="M10.7291 11.4361C9.45284 12.5295 7.80269 13.0862 6.1249 12.9892C4.4471 12.8922 2.87208 12.1491 1.73033 10.9159C0.588583 9.6827 -0.031139 8.05519 0.00120526 6.3749C0.0335495 4.69462 0.715446 3.09217 1.90381 1.90381C3.09217 0.715446 4.69462 0.0335495 6.3749 0.00120526C8.05519 -0.031139 9.6827 0.588583 10.9159 1.73033C12.1491 2.87208 12.8922 4.4471 12.9892 6.1249C13.0862 7.80269 12.5295 9.45284 11.4361 10.7291L14.8521 14.1471C14.9385 14.2356 14.989 14.3531 14.9938 14.4767C14.9986 14.6004 14.9574 14.7214 14.8782 14.8164C14.799 14.9114 14.6873 14.9737 14.5648 14.9912C14.4424 15.0087 14.3177 14.9801 14.2151 14.9111L14.1451 14.8541L10.7291 11.4361ZM10.0191 10.7261C10.2757 10.5127 10.5114 10.2774 10.7261 10.0201C11.6318 8.93244 12.0833 7.5375 11.9868 6.12542C11.8902 4.71335 11.253 3.39285 10.2077 2.4386C9.16241 1.48435 7.78945 0.969812 6.37445 1.00202C4.95945 1.03422 3.61132 1.61069 2.61051 2.61151C1.60969 3.61232 1.03322 4.96045 1.00102 6.37545C0.968812 7.79045 1.48335 9.16341 2.4376 10.2087C3.39185 11.254 4.71235 11.8912 6.12442 11.9878C7.5365 12.0843 8.93144 11.6328 10.0191 10.7271" fill="black"/>
</svg>
