<svg width="34" height="25" viewBox="0 0 34 25" fill="none" xmlns="http://www.w3.org/2000/svg">
<path d="M6.5285 21.875H27.4715C29.0041 21.875 30.4738 21.2662 31.5575 20.1825C32.6412 19.0988 33.25 17.6291 33.25 16.0965V12.125C33.25 11.263 32.9076 10.4364 32.2981 9.8269C31.6886 9.21741 30.862 8.875 30 8.875C29.138 8.875 28.3114 9.21741 27.7019 9.8269C27.0924 10.4364 26.75 11.263 26.75 12.125V14.075C26.75 14.4198 26.613 14.7504 26.3692 14.9942C26.1254 15.238 25.7948 15.375 25.45 15.375H8.55C8.20522 15.375 7.87456 15.238 7.63076 14.9942C7.38696 14.7504 7.25 14.4198 7.25 14.075V12.125C7.25 11.263 6.90759 10.4364 6.2981 9.8269C5.6886 9.21741 4.86195 8.875 4 8.875C3.13805 8.875 2.3114 9.21741 1.7019 9.8269C1.09241 10.4364 0.75 11.263 0.75 12.125V16.0965C0.75 17.6291 1.3588 19.0988 2.44248 20.1825C3.52616 21.2662 4.99595 21.875 6.5285 21.875Z" stroke="black" stroke-width="1.5"/>
<path d="M30 8.875C30 7.36375 30 6.60975 29.8749 5.9825C29.6241 4.72151 29.005 3.56321 28.0959 2.65409C27.1868 1.74498 26.0285 1.12589 24.7675 0.875125C24.1403 0.75 23.3863 0.75 21.875 0.75H12.125C10.6137 0.75 9.85975 0.75 9.2325 0.875125C7.97151 1.12589 6.81321 1.74498 5.90409 2.65409C4.99498 3.56321 4.37589 4.72151 4.12513 5.9825C4 6.60975 4 7.36375 4 8.875" stroke="black" stroke-width="1.5"/>
<path d="M30 23.5V21.875M4 23.5V21.875" stroke="black" stroke-width="1.5" stroke-linecap="round"/>
</svg>
