<svg width="25" height="27" viewBox="0 0 25 27" fill="none" xmlns="http://www.w3.org/2000/svg">
<path d="M14.107 26.8125C13.8763 26.8125 13.6835 26.7345 13.5285 26.5785C13.3736 26.4225 13.2956 26.2291 13.2945 25.9984C13.2935 25.7676 13.3715 25.5748 13.5285 25.4199C13.6856 25.265 13.8785 25.1875 14.107 25.1875H23.857C24.0878 25.1875 24.2806 25.2655 24.4355 25.4215C24.5905 25.5775 24.6685 25.7709 24.6695 26.0016C24.6706 26.2324 24.5926 26.4252 24.4355 26.5801C24.2785 26.735 24.0856 26.8125 23.857 26.8125H14.107ZM1.80417 8.49875H7.91905V2.62763C7.91905 2.33513 7.82534 2.09517 7.63792 1.90775C7.45051 1.72033 7.21109 1.62608 6.91967 1.625H5.46042C5.25242 1.625 5.06988 1.677 4.9128 1.781C4.7568 1.885 4.63763 2.03125 4.5553 2.21975L1.80417 8.49875ZM18.4019 22.0789C18.247 21.9229 18.1695 21.73 18.1695 21.5004V6.62512C18.1695 5.95671 17.9307 5.38308 17.4529 4.90425C16.9741 4.4265 16.4005 4.18763 15.732 4.18763H9.54405V8.81238C9.54405 9.18396 9.41838 9.49596 9.16705 9.74837C8.91571 10.0008 8.60426 10.1265 8.23267 10.1254H1.32642C0.834589 10.1254 0.462463 9.92821 0.210047 9.53387C-0.04237 9.13954 -0.0672866 8.72408 0.135297 8.2875L3.05705 1.57625C3.28671 1.08442 3.61388 0.69875 4.03855 0.41925C4.46321 0.13975 4.93717 0 5.46042 0H6.91967C7.63251 0 8.24296 0.250791 8.75105 0.752375C9.25913 1.25287 9.52347 1.85629 9.54405 2.56263H15.732C16.8609 2.56263 17.8196 2.9575 18.6083 3.74725C19.3991 4.53808 19.7945 5.49737 19.7945 6.62512V21.5004C19.7945 21.73 19.7165 21.9229 19.5605 22.0789C19.4045 22.2349 19.2112 22.3129 18.9804 22.3129C18.7497 22.3129 18.5568 22.2349 18.4019 22.0789Z" fill="black"/>
</svg>
