<svg width="39" height="39" viewBox="0 0 39 39" fill="none" xmlns="http://www.w3.org/2000/svg">
<path d="M30.875 32.5V30.0625M8.125 32.5V30.0625" stroke="black" stroke-width="1.5" stroke-linecap="round"/>
<path d="M34.125 19.5C34.125 13.3721 34.125 10.3074 32.2205 8.4045C30.316 6.50162 27.2529 6.5 21.125 6.5H17.875C11.7471 6.5 8.68237 6.5 6.7795 8.4045C4.87662 10.309 4.875 13.3721 4.875 19.5M3.25 24.375C3.25 22.8605 3.25 22.1032 3.497 21.5069C3.66033 21.1123 3.89983 20.7538 4.2018 20.4518C4.50377 20.1498 4.86229 19.9103 5.25687 19.747C5.85325 19.5 6.6105 19.5 8.125 19.5H30.875C32.3895 19.5 33.1467 19.5 33.7431 19.747C34.1377 19.9103 34.4962 20.1498 34.7982 20.4518C35.1002 20.7538 35.3397 21.1123 35.503 21.5069C35.75 22.1032 35.75 22.8605 35.75 24.375C35.75 25.8895 35.75 26.6467 35.503 27.2431C35.3397 27.6377 35.1002 27.9962 34.7982 28.2982C34.4962 28.6002 34.1377 28.8397 33.7431 29.003C33.1467 29.25 32.3895 29.25 30.875 29.25H8.125C6.6105 29.25 5.85325 29.25 5.25687 29.003C4.86229 28.8397 4.50377 28.6002 4.2018 28.2982C3.89983 27.9962 3.66033 27.6377 3.497 27.2431C3.25 26.6467 3.25 25.8895 3.25 24.375Z" stroke="black" stroke-width="1.5"/>
<path d="M30.0625 19.5V17.0625C30.0625 13.9977 30.0625 12.467 29.1102 11.5147C28.158 10.5625 26.6273 10.5625 23.5625 10.5625H15.4375C12.3727 10.5625 10.842 10.5625 9.88975 11.5147C8.9375 12.467 8.9375 13.9977 8.9375 17.0625V19.5M19.5 11.375V19.5" stroke="black" stroke-width="1.5"/>
</svg>
