<svg width="41" height="41" viewBox="0 0 41 41" fill="none" xmlns="http://www.w3.org/2000/svg">
<path d="M33.9 39.75V38.775M6.6 39.75V38.775M20.25 37.8V24.15M20.25 0.75V16.35M26.1 12.45V16.35M39.75 18.3V22.2C39.75 29.5535 39.75 33.2311 37.4646 35.5146C35.1792 37.798 31.5035 37.8 24.15 37.8H16.35C8.99655 37.8 5.31885 37.8 3.0354 35.5146C0.75195 33.2292 0.75 29.5535 0.75 22.2V16.35C0.75 8.99655 0.75 5.31885 3.0354 3.0354C5.3208 0.75195 8.99655 0.75 16.35 0.75H24.15C31.5035 0.75 35.1811 0.75 37.4646 3.0354C39.0421 4.611 39.5316 6.8496 39.6818 10.5M0.75 12.45H20.25M0.75 26.1H39.75M26.1 31.95H30M10.5 31.95H14.4" stroke="black" stroke-width="1.5" stroke-linecap="round"/>
</svg>
