<svg width="60" height="46" viewBox="0 0 60 46" fill="none" xmlns="http://www.w3.org/2000/svg">
<path d="M11.1647 22.4125C4.505 22.4125 0 17.8625 0 11.1208C0 5.05416 5.168 0 12.1677 0C19.8347 0 25.5 6.06667 25.5 15.3333C25.5 36.3958 9.8345 44.8208 0 45.8333V36.5667C6.66825 35.3875 14.1652 28.8167 14.501 21.5667C14.1652 21.7333 12.835 22.4125 11.1647 22.4125Z" fill="#F0F2F3"/>
<path d="M45.1647 22.4125C38.5007 22.4125 34 17.8625 34 11.1208C34 5.05416 39.168 0 46.1677 0C53.8347 0 59.5 6.06667 59.5 15.3333C59.5 36.3958 43.8345 44.8208 34 45.8333V36.5667C40.6683 35.3875 48.1653 28.8167 48.501 21.5667C48.1653 21.7333 46.835 22.4125 45.1647 22.4125Z" fill="#F0F2F3"/>
</svg>
