<svg width="97" height="97" viewBox="0 0 97 97" fill="none" xmlns="http://www.w3.org/2000/svg">
<path fill-rule="evenodd" clip-rule="evenodd" d="M61.9492 57.4471C61.4076 57.1941 60.8709 56.9322 60.339 56.6614C58.148 55.5423 55.3884 56.3535 54.3711 58.5929C52.9694 61.6751 48.9209 62.4099 46.5262 60.0152L46.331 59.82L36.0417 49.5319L35.8465 49.3355C33.4518 46.942 34.1854 42.8923 37.2688 41.4906C39.3906 40.5267 40.14 37.8956 39.0305 35.844C37.6259 33.2447 36.4541 30.5262 35.5288 27.7203C34.5164 24.6539 31.0365 22.9442 28.1605 24.4101L20.5799 28.272C19.3323 28.9085 18.5587 30.2144 18.6799 31.6088C19.707 43.3504 24.8383 54.3548 33.1726 62.6891C41.5069 71.0235 52.5113 76.1547 64.253 77.1818C65.6486 77.303 66.9556 76.5295 67.5922 75.2806L71.6638 67.289C73.1479 64.3766 71.3764 60.8543 68.2542 59.8843C66.0997 59.2159 63.9931 58.4016 61.9492 57.4471Z" fill="#1FAF38"/>
</svg>
