<svg width="19" height="19" viewBox="0 0 19 19" fill="none" xmlns="http://www.w3.org/2000/svg">
<path d="M0.75 0.75L2.65667 1.08L3.53942 11.5969C3.57333 12.0108 3.76202 12.3966 4.06786 12.6775C4.3737 12.9583 4.77419 13.1136 5.18942 13.1122H15.1903C15.5878 13.1126 15.9722 12.9695 16.2727 12.7091C16.5731 12.4487 16.7695 12.0886 16.8256 11.695L17.6964 5.6835C17.7196 5.52363 17.7111 5.36074 17.6713 5.20416C17.6315 5.04759 17.5613 4.90039 17.4646 4.77098C17.3679 4.64158 17.2466 4.53251 17.1077 4.45C16.9688 4.3675 16.815 4.31319 16.6551 4.29017C16.5964 4.28375 2.96283 4.27917 2.96283 4.27917" stroke="#272343" stroke-width="1.5" stroke-linecap="round" stroke-linejoin="round"/>
<path d="M11.1772 7.66602H13.7192" stroke="#272343" stroke-width="1.5" stroke-linecap="round" stroke-linejoin="round"/>
<path fill-rule="evenodd" clip-rule="evenodd" d="M4.78686 16.29C4.85408 16.2871 4.9212 16.2979 4.98416 16.3216C5.04712 16.3454 5.10462 16.3816 5.15321 16.4281C5.20179 16.4747 5.24046 16.5306 5.26687 16.5925C5.29329 16.6543 5.3069 16.7209 5.3069 16.7882C5.3069 16.8555 5.29329 16.9221 5.26687 16.984C5.24046 17.0459 5.20179 17.1018 5.15321 17.1483C5.10462 17.1949 5.04712 17.2311 4.98416 17.2548C4.9212 17.2786 4.85408 17.2893 4.78686 17.2864C4.65843 17.2809 4.53708 17.226 4.44815 17.1332C4.35922 17.0404 4.30957 16.9168 4.30957 16.7882C4.30957 16.6597 4.35922 16.5361 4.44815 16.4432C4.53708 16.3504 4.65843 16.2955 4.78686 16.29Z" fill="#272343" stroke="#272343" stroke-width="1.5" stroke-linecap="round" stroke-linejoin="round"/>
<path fill-rule="evenodd" clip-rule="evenodd" d="M15.128 16.29C15.2605 16.29 15.3876 16.3427 15.4813 16.4364C15.5749 16.5301 15.6276 16.6571 15.6276 16.7896C15.6276 16.9221 15.5749 17.0492 15.4813 17.1429C15.3876 17.2366 15.2605 17.2892 15.128 17.2892C14.9955 17.2892 14.8684 17.2366 14.7747 17.1429C14.6811 17.0492 14.6284 16.9221 14.6284 16.7896C14.6284 16.6571 14.6811 16.5301 14.7747 16.4364C14.8684 16.3427 14.9955 16.29 15.128 16.29Z" fill="#272343" stroke="#272343" stroke-width="1.5" stroke-linecap="round" stroke-linejoin="round"/>
</svg>
