<svg width="27" height="27" viewBox="0 0 27 27" fill="none" xmlns="http://www.w3.org/2000/svg">
<path fill-rule="evenodd" clip-rule="evenodd" d="M20.06 9.24931C20.1143 8.90522 20.0759 8.55287 19.9487 8.22855C19.8216 7.90423 19.6103 7.61965 19.3367 7.40411C19.063 7.18857 18.7368 7.04987 18.3917 7.00227C18.0467 6.95467 17.6951 6.99991 17.3733 7.13331L6.036 11.82C4.59867 12.4146 4.80933 14.5133 6.33733 14.8093L8.45867 15.22C9.04667 15.3333 9.65733 15.2266 10.1707 14.9186L10.7893 14.5493C10.613 14.8989 10.5734 15.3017 10.6782 15.6789C10.783 16.0561 11.0247 16.3807 11.356 16.5893L16.2227 19.64C16.4426 19.778 16.6934 19.8591 16.9526 19.8763C17.2117 19.8934 17.471 19.8459 17.7072 19.738C17.9434 19.6301 18.1491 19.4653 18.3059 19.2583C18.4626 19.0513 18.5655 18.8086 18.6053 18.552L20.06 9.24931ZM12.188 15.2626L16.228 11.3893C16.948 10.7 16.076 9.55865 15.2213 10.0693L9.36533 13.5746C9.18263 13.6836 8.96622 13.7216 8.75733 13.6813L6.636 13.2706L17.972 8.58398C18.0363 8.55733 18.1066 8.5483 18.1755 8.5578C18.2445 8.5673 18.3097 8.59499 18.3644 8.63803C18.4191 8.68107 18.4614 8.7379 18.4868 8.80268C18.5123 8.86747 18.5201 8.93787 18.5093 9.00665L17.056 18.312L12.188 15.2626Z" fill="black"/>
<path fill-rule="evenodd" clip-rule="evenodd" d="M13.3333 0C5.96933 0 0 5.96933 0 13.3333C0 20.6973 5.96933 26.6667 13.3333 26.6667C20.6973 26.6667 26.6667 20.6973 26.6667 13.3333C26.6667 5.96933 20.6973 0 13.3333 0ZM1.568 13.3333C1.568 10.213 2.80756 7.22041 5.01399 5.01399C7.22041 2.80756 10.213 1.568 13.3333 1.568C16.4537 1.568 19.4463 2.80756 21.6527 5.01399C23.8591 7.22041 25.0987 10.213 25.0987 13.3333C25.0987 16.4537 23.8591 19.4463 21.6527 21.6527C19.4463 23.8591 16.4537 25.0987 13.3333 25.0987C10.213 25.0987 7.22041 23.8591 5.01399 21.6527C2.80756 19.4463 1.568 16.4537 1.568 13.3333Z" fill="black"/>
</svg>
