<svg width="23" height="34" viewBox="0 0 23 34" fill="none" xmlns="http://www.w3.org/2000/svg">
<path d="M16.0943 16.5297L6.41741 20.1047M16.0943 10.1313L6.41741 13.7071M10.0168 2.66685C14.8211 1.55048 19.2728 6.99585 19.9699 14.8422C20.667 22.6885 17.3447 29.9758 12.5437 31.1344C7.7426 32.293 3.27304 26.8867 2.54991 19.0469C1.82679 11.207 5.12554 3.89048 9.92253 2.6896M9.70722 0.417853C15.7132 -0.874022 21.2772 5.43098 22.1482 14.5164C23.0192 23.6017 18.8673 32.0387 12.8654 33.381C6.86347 34.7232 1.27672 28.4629 0.374036 19.3849C-0.528652 10.3068 3.59235 1.83485 9.5886 0.443853" stroke="black" stroke-width="0.5" stroke-linecap="round" stroke-linejoin="round"/>
</svg>
