<svg width="39" height="39" viewBox="0 0 39 39" fill="none" xmlns="http://www.w3.org/2000/svg">
<path d="M8.17695 11.2743C7.73007 7.683 10.2407 4.38425 13.8807 3.77325L14.5274 3.66437C17.8181 3.11187 21.1818 3.11187 24.4724 3.66437L25.1192 3.77325C28.7592 4.38425 31.2698 7.68463 30.8229 11.2743L30.7953 11.5099C30.7388 11.9248 30.5332 12.3049 30.2167 12.5792C29.9003 12.8534 29.4948 13.003 29.0761 13H9.92382C9.04795 13 8.31182 12.3598 8.2062 11.5099L8.17695 11.2743Z" stroke="black" stroke-width="1.5"/>
<path d="M14.625 13L9.75 35.75M24.375 13L29.25 35.75" stroke="black" stroke-width="1.5" stroke-linecap="round"/>
<path opacity="0.5" d="M26.8125 27.625H12.1875" stroke="black" stroke-width="1.5" stroke-linecap="round"/>
</svg>
