<svg width="30" height="18" viewBox="0 0 30 18" fill="none" xmlns="http://www.w3.org/2000/svg">
<path d="M2.87625 17.875H1.99875L1.38125 14.625H0V9.11625C0 8.38933 0.255666 7.77183 0.767 7.26375C1.27833 6.75458 1.898 6.5 2.626 6.5H3.25V2.62437C3.25 1.89854 3.50567 1.27942 4.017 0.767C4.52833 0.255667 5.148 0 5.876 0H23.3756C24.1015 0 24.7206 0.255667 25.233 0.767C25.7443 1.27833 26 1.89746 26 2.62437V6.5H26.6256C27.3515 6.5 27.9706 6.75567 28.483 7.267C28.9943 7.77833 29.25 8.398 29.25 9.126V14.625H27.8687L27.2513 17.875H26.3737L25.7563 14.625H3.49375L2.87625 17.875ZM15.4375 6.5H24.375V2.62437C24.375 2.33296 24.2813 2.09354 24.0939 1.90613C23.9065 1.71871 23.667 1.625 23.3756 1.625H15.4375V6.5ZM4.875 6.5H13.8125V1.625H5.876C5.5835 1.625 5.34354 1.71871 5.15612 1.90613C4.96871 2.09354 4.875 2.33296 4.875 2.62437V6.5ZM1.625 13H27.625V9.126C27.625 8.8335 27.5313 8.59354 27.3439 8.40613C27.1565 8.21871 26.917 8.125 26.6256 8.125H2.62437C2.33296 8.125 2.09354 8.21871 1.90612 8.40613C1.71871 8.59354 1.625 8.8335 1.625 9.126V13Z" fill="black"/>
</svg>
