<svg width="36" height="36" viewBox="0 0 36 36" fill="none" xmlns="http://www.w3.org/2000/svg">
<path d="M17.5625 34.625H0.5V2.125C0.5 2.125 3.75 0.5 9.03125 0.5C14.3125 0.5 17.5625 2.125 17.5625 2.125V34.625ZM17.5625 34.625V18.375H17.9688C17.9688 18.375 20.8125 20 26.0938 20C31.375 20 34.2188 18.375 34.2188 18.375H34.625V34.625H17.5625ZM0.5 13.5C0.5 13.5 3.75 11.875 9.03125 11.875C14.3125 11.875 17.5625 13.5 17.5625 13.5M4.5625 5.375V8.625M4.5625 15.9375V19.1875M28.125 19.9171V13.9062C28.125 13.3675 27.911 12.8509 27.5301 12.4699C27.1491 12.089 26.6325 11.875 26.0938 11.875C25.555 11.875 25.0384 12.089 24.6574 12.4699C24.2765 12.8509 24.0625 13.3675 24.0625 13.9062V14.3125" stroke="black"/>
</svg>
