<svg width="39" height="39" viewBox="0 0 39 39" fill="none" xmlns="http://www.w3.org/2000/svg">
<path d="M13 24.375L9.75 35.75M26 24.375L29.25 35.75" stroke="black" stroke-width="1.5" stroke-linecap="round" stroke-linejoin="round"/>
<path d="M19.5001 17.875C17.0268 17.875 14.4138 18.3511 12.3631 18.9865C10.8193 19.4643 9.57784 21.6483 9.76959 23.4211C9.84109 24.0776 10.3497 24.375 10.8843 24.375H28.1158C28.6521 24.375 29.1591 24.0776 29.2306 23.4211C29.4223 21.6483 28.1808 19.4642 26.6371 18.9849C24.588 18.3527 21.9733 17.875 19.5001 17.875Z" stroke="black" stroke-width="1.5" stroke-linecap="round"/>
<path d="M11.375 19.5L12.415 9.10325C12.6929 6.32125 12.8326 4.93025 13.7605 4.09012C14.6884 3.25 16.0875 3.25 18.8825 3.25H20.1175C22.9125 3.25 24.31 3.25 25.2395 4.09012C26.1674 4.93025 26.3071 6.32125 26.585 9.10325L27.625 19.5" stroke="black" stroke-width="1.5" stroke-linecap="round" stroke-linejoin="round"/>
</svg>
