<svg width="39" height="39" viewBox="0 0 39 39" fill="none" xmlns="http://www.w3.org/2000/svg">
<path d="M3.25 24.375C3.25 22.8426 3.25 22.0773 3.72612 21.6011C4.20225 21.125 4.96762 21.125 6.5 21.125H32.5C34.0324 21.125 34.7978 21.125 35.2739 21.6011C35.75 22.0773 35.75 22.8426 35.75 24.375V27.625C35.75 29.1574 35.75 29.9228 35.2739 30.3989C34.7978 30.875 34.0324 30.875 32.5 30.875H6.5C4.96762 30.875 4.20225 30.875 3.72612 30.3989C3.25 29.9228 3.25 29.1574 3.25 27.625V24.375Z" stroke="black" stroke-width="1.5"/>
<path d="M17.875 26H21.125M31.6875 30.875C30.3875 33.475 31.6875 35.2089 32.5 35.75M7.3125 30.875C8.6125 33.475 7.3125 35.2089 6.5 35.75M6.5 21.125V3.25M32.5 21.125V3.25" stroke="black" stroke-width="1.5" stroke-linecap="round" stroke-linejoin="round"/>
<path d="M6.5 5.6875H13.1398C13.4583 5.6875 13.6175 5.6875 13.754 5.63713C13.8905 5.58675 14.0302 5.4665 14.3065 5.22925C17.3729 2.59025 21.6271 2.59025 24.6935 5.22925C24.9698 5.4665 25.1079 5.58675 25.246 5.6355C25.3825 5.6875 25.5417 5.6875 25.8602 5.6875H32.5" stroke="black" stroke-width="1.5"/>
<path d="M14.625 11.375L16.25 9.75M16.25 15.4375L19.5 12.1875" stroke="black" stroke-width="1.5" stroke-linecap="round" stroke-linejoin="round"/>
</svg>
