<svg width="39" height="39" viewBox="0 0 39 39" fill="none" xmlns="http://www.w3.org/2000/svg">
<path d="M8.9375 29.25V34.125M30.0625 29.25V34.125M3.25 4.875H35.75M4.875 17.0625H34.125M34.125 4.875H4.875V21.125C4.875 24.9551 4.875 26.8694 6.214 28.0605C7.553 29.2516 9.70775 29.25 14.0156 29.25H24.9844C29.2939 29.25 31.447 29.25 32.786 28.0605C34.125 26.8694 34.125 24.9551 34.125 21.125V4.875Z" stroke="black" stroke-width="1.5" stroke-linecap="round" stroke-linejoin="round"/>
<path d="M16.25 21.9375L16.5019 22.0643C17.1844 22.4055 17.5272 22.5761 17.8961 22.6639C18.265 22.7516 18.6453 22.75 19.409 22.75H19.591C20.3547 22.75 20.7366 22.75 21.1039 22.6639C21.4728 22.5761 21.814 22.4039 22.4981 22.0626L22.75 21.9375M16.25 10.5625L16.5019 10.6893C17.1844 11.0305 17.5272 11.2011 17.8961 11.2889C18.265 11.3766 18.6453 11.375 19.409 11.375H19.591C20.3547 11.375 20.7366 11.375 21.1039 11.2889C21.4728 11.2011 21.814 11.0289 22.4981 10.6876L22.75 10.5625" stroke="black" stroke-width="1.5" stroke-linecap="round" stroke-linejoin="round"/>
</svg>
