<svg width="22" height="22" viewBox="0 0 22 22" fill="none" xmlns="http://www.w3.org/2000/svg">
<path d="M10.6467 5.18C9.56546 5.18 8.50854 5.50062 7.60955 6.1013C6.71056 6.70199 6.00988 7.55576 5.59613 8.55467C5.18237 9.55357 5.07411 10.6527 5.28504 11.7132C5.49597 12.7736 6.01662 13.7477 6.78115 14.5122C7.54568 15.2767 8.51974 15.7974 9.58017 16.0083C10.6406 16.2192 11.7398 16.111 12.7387 15.6972C13.7376 15.2835 14.5913 14.5828 15.192 13.6838C15.7927 12.7848 16.1133 11.7279 16.1133 10.6467C16.1151 9.92828 15.9749 9.21663 15.7008 8.55259C15.4267 7.88855 15.0241 7.28521 14.5161 6.77723C14.0081 6.26925 13.4048 5.86665 12.7407 5.59255C12.0767 5.31844 11.3651 5.17824 10.6467 5.18ZM10.6467 14.2067C9.94257 14.2067 9.25427 13.9979 8.66884 13.6067C8.0834 13.2155 7.6271 12.6595 7.35765 12.009C7.08821 11.3585 7.01771 10.6427 7.15507 9.95215C7.29243 9.26158 7.63149 8.62724 8.12937 8.12937C8.62724 7.63149 9.26157 7.29244 9.95214 7.15507C10.6427 7.01771 11.3585 7.08821 12.009 7.35766C12.6595 7.6271 13.2155 8.0834 13.6067 8.66884C13.9979 9.25428 14.2067 9.94257 14.2067 10.6467C14.2067 11.5908 13.8316 12.4963 13.164 13.164C12.4963 13.8316 11.5908 14.2067 10.6467 14.2067ZM17.62 4.95333C17.62 5.21704 17.5418 5.47483 17.3953 5.69409C17.2488 5.91336 17.0405 6.08426 16.7969 6.18517C16.5533 6.28609 16.2852 6.3125 16.0265 6.26105C15.7679 6.2096 15.5303 6.08261 15.3439 5.89614C15.1574 5.70967 15.0304 5.4721 14.979 5.21346C14.9275 4.95481 14.9539 4.68672 15.0548 4.44309C15.1557 4.19946 15.3266 3.99122 15.5459 3.84471C15.7652 3.6982 16.023 3.62 16.2867 3.62C16.6403 3.62 16.9794 3.76048 17.2295 4.01053C17.4795 4.26057 17.62 4.59971 17.62 4.95333ZM21.2333 6.28667C21.2736 4.62885 20.6551 3.02267 19.5133 1.82C18.921 1.24745 18.2217 0.7973 17.4552 0.4953C16.6888 0.193301 15.8703 0.0453802 15.0467 0.06C13.3133 -0.02 7.98 -0.02 6.24667 0.06C4.58961 0.0241189 2.98503 0.642001 1.78 1.78C0.638257 2.98267 0.0197577 4.58885 0.06 6.24667C-0.02 7.98 -0.02 13.3133 0.06 15.0467C0.0197577 16.7045 0.638257 18.3107 1.78 19.5133C2.98503 20.6513 4.58961 21.2692 6.24667 21.2333C8.00667 21.34 13.2867 21.34 15.0467 21.2333C16.7045 21.2736 18.3107 20.6551 19.5133 19.5133C20.6551 18.3107 21.2736 16.7045 21.2333 15.0467C21.3133 13.3133 21.3133 7.98 21.2333 6.24667V6.28667ZM18.9667 16.9533C18.7856 17.4119 18.5123 17.8284 18.1637 18.1771C17.8151 18.5257 17.3986 18.799 16.94 18.98C14.8701 19.3985 12.7541 19.5419 10.6467 19.4067C8.54368 19.5408 6.43219 19.3973 4.36667 18.98C3.90808 18.799 3.49157 18.5257 3.14295 18.1771C2.79433 17.8284 2.52103 17.4119 2.34 16.9533C1.78 15.54 1.9 12.2067 1.9 10.66C1.9 9.11334 1.78 5.76667 2.34 4.36667C2.51592 3.90356 2.78727 3.48262 3.13642 3.13117C3.48557 2.77972 3.90472 2.50562 4.36667 2.32667C6.43219 1.90936 8.54368 1.76591 10.6467 1.9C12.7541 1.76473 14.8701 1.90819 16.94 2.32667C17.3986 2.5077 17.8151 2.781 18.1637 3.12962C18.5123 3.47824 18.7856 3.89475 18.9667 4.35333C19.5267 5.76667 19.3933 9.1 19.3933 10.6467C19.3933 12.1933 19.5267 15.54 18.9667 16.94V16.9533Z" fill="black"/>
</svg>
