<svg width="26" height="26" viewBox="0 0 26 26" fill="none" xmlns="http://www.w3.org/2000/svg">
<path fill-rule="evenodd" clip-rule="evenodd" d="M13 0C5.82 0 0 5.82 0 13C0 20.18 5.82 26 13 26C20.18 26 26 20.18 26 13C26 5.82 20.18 0 13 0ZM2 13C2.00073 10.6825 2.73342 8.42436 4.09352 6.54789C5.45362 4.67143 7.37164 3.27247 9.5739 2.55064C11.7762 1.82881 14.1501 1.82099 16.3571 2.52828C18.5641 3.23558 20.4913 4.62186 21.8637 6.48932C23.2362 8.35677 23.9837 10.61 23.9997 12.9275C24.0158 15.245 23.2994 17.5083 21.9529 19.3945C20.6064 21.2808 18.6985 22.6936 16.5015 23.4313C14.3046 24.169 11.9307 24.194 9.71867 23.5027C10.2826 22.6178 10.7307 21.6642 11.052 20.6653L11.74 18.0293C12.0244 18.4357 12.4058 18.7644 12.8497 18.9856C13.2936 19.2069 13.7857 19.3136 14.2813 19.296C17.6613 19.296 20.0373 16.224 20.0373 12.408C20.0373 8.74267 17.044 6.004 13.2053 6.004C8.42267 6.004 5.88267 9.21733 5.88267 12.7093C5.88267 14.34 6.74533 16.3587 8.13067 17.008C8.336 17.1027 8.47067 17.008 8.50267 16.8573C8.53467 16.7067 8.724 15.948 8.81067 15.5987C8.82444 15.5436 8.82446 15.486 8.81075 15.4309C8.79703 15.3758 8.76999 15.3249 8.732 15.2827C8.207 14.5461 7.92965 13.6618 7.94 12.7573C7.93761 12.1083 8.06686 11.4656 8.31994 10.8679C8.57301 10.2703 8.94466 9.7302 9.4124 9.28028C9.88015 8.83036 10.4343 8.47997 11.0413 8.25029C11.6483 8.02061 12.2956 7.91641 12.944 7.944C13.5513 7.90847 14.1593 7.99992 14.7293 8.21251C15.2993 8.4251 15.8187 8.75417 16.2545 9.17871C16.6902 9.60325 17.0326 10.114 17.2599 10.6782C17.4872 11.2425 17.5944 11.848 17.5747 12.456C17.5747 15.448 16.0547 17.5307 14.092 17.5307C13.8384 17.55 13.584 17.5079 13.3501 17.4081C13.1162 17.3083 12.9097 17.1537 12.7482 16.9573C12.5867 16.7608 12.4749 16.5284 12.4222 16.2796C12.3694 16.0309 12.3774 15.7731 12.4453 15.528C12.5573 15.0613 12.7067 14.58 12.8507 14.1107C13.1133 13.26 13.364 12.4507 13.364 11.8387C13.3913 11.6397 13.3753 11.4372 13.3171 11.245C13.2589 11.0528 13.1599 10.8755 13.0268 10.7251C12.8938 10.5747 12.7298 10.4548 12.5461 10.3736C12.3625 10.2924 12.1635 10.2518 11.9627 10.2547C10.8533 10.2547 9.95867 11.4107 9.95867 12.9467C9.95067 13.4893 10.052 14.028 10.26 14.5307L8.95333 20.072C8.79443 21.1193 8.79443 22.1847 8.95333 23.232C8.092 22.8912 7.27747 22.4422 6.52933 21.896C4.69139 20.555 3.31142 18.6801 2.57733 16.5267C2.19277 15.3907 1.99772 14.1993 2 13Z" fill="black"/>
</svg>
